<?xml version="1.0" encoding="iso-8859-1"?>
<!-- Generator: Adobe Illustrator 19.0.0, SVG Export Plug-In . SVG Version: 6.00 Build 0)  -->
<svg version="1.1" id="Capa_1" xmlns="http://www.w3.org/2000/svg" xmlns:xlink="http://www.w3.org/1999/xlink" x="0px" y="0px"
	 viewBox="0 0 512 512" style="enable-background:new 0 0 512 512;" xml:space="preserve">
<g transform="translate(0 -1)">
	<g>
		<g>
			<path d="M472.179,173.48v-1.812c0.008-15.908-6.365-31.155-17.692-42.325c-16.53-16.234-40.855-21.653-62.714-13.972
				C335.04,60.927,251.28,45.615,178.953,76.466C106.626,107.317,59.705,178.37,59.733,257.001c0,6.437,0.435,12.921,1.079,19.38
				c-12.438,5.164-21.987,15.519-26.129,28.333c-7.616,2.04-14.618,5.91-20.396,11.275C5.168,324.22-0.025,335.937,0,348.222
				c0.388,22.714,17.344,41.722,39.867,44.692c2.62,0.416,5.268,0.624,7.921,0.621h67.249
				c37.017,38.096,87.845,59.635,140.963,59.733c98.64,0.472,182.096-72.796,194.398-170.667h5.281
				c3.115,0.009,6.225-0.263,9.292-0.812c27.008-4.369,46.899-27.624,47.029-54.983C512.025,202.165,495.812,180.454,472.179,173.48
				z M47.788,376.468c-1.758,0.002-3.514-0.134-5.25-0.408c-14.134-1.842-24.888-13.595-25.471-27.838
				c0.005-7.532,3.218-14.705,8.833-19.725c4.72-4.373,10.665-7.198,17.037-8.096c3.7-0.527,6.625-3.402,7.217-7.092
				c1.419-8,6.255-14.983,13.245-19.123c5.682,29.946,18.336,58.134,36.936,82.281H47.788z M256,436.201
				c-49.715-0.073-97.185-20.712-131.146-57.021c-25.333-27.076-41.565-61.395-46.425-98.154
				c-6.96-51.253,8.574-103.012,42.607-141.962C155.069,100.115,204.277,77.779,256,77.801
				c44.241-0.063,86.914,16.379,119.675,46.11c-3.672,2.72-7.022,5.851-9.983,9.332c-29.628-7.241-59.66,10.317-67.883,39.688
				c-9.537,2.47-18.245,7.434-25.229,14.383c-10.649,10.374-16.632,24.625-16.579,39.492c-0.026,27.33,19.817,50.626,46.804,54.946
				c3.14,0.571,6.325,0.855,9.517,0.85h120.866C420.957,370.967,345.207,436.633,256,436.201z M483.417,254.172
				c-5.769,5.787-13.242,9.571-21.321,10.796c-2.118,0.381-4.265,0.57-6.417,0.567H312.321c-2.209,0.001-4.414-0.199-6.588-0.596
				c-18.79-2.938-32.647-19.115-32.666-38.133c-0.036-10.29,4.108-20.153,11.483-27.329c5.867-5.856,13.467-9.663,21.671-10.854
				c3.718-0.543,6.644-3.452,7.208-7.166c3.129-18.934,19.522-32.807,38.713-32.763c4.673-0.029,9.312,0.797,13.688,2.438
				c3.698,1.413,7.883,0.093,10.1-3.188c7.304-10.631,18.933-17.49,31.771-18.737c12.838-1.247,25.57,3.244,34.783,12.27
				c8.08,7.969,12.629,18.843,12.629,30.192v8.587c0,4.18,3.029,7.745,7.154,8.421c18.79,2.935,32.649,19.111,32.667,38.129
				C494.964,237.112,490.807,246.989,483.417,254.172z"/>
			<path d="M246.996,95.114L246.996,95.114c-15.371,0.84-30.541,3.878-45.05,9.021c-4.441,1.574-6.766,6.451-5.192,10.892
				c1.574,4.441,6.451,6.766,10.892,5.192c12.977-4.595,26.545-7.31,40.292-8.063c4.699-0.269,8.294-4.291,8.034-8.991
				C255.712,98.465,251.696,94.863,246.996,95.114z"/>
			<path d="M174.998,121.321c-2.743-1.354-6.001-1.136-8.539,0.572l0,0c-4.233,2.813-8.358,5.846-12.262,9.004
				c-2.37,1.917-3.537,4.953-3.061,7.964c0.476,3.011,2.521,5.54,5.367,6.633c2.845,1.094,6.058,0.586,8.428-1.331
				c3.496-2.829,7.192-5.542,10.979-8.062c2.556-1.68,4.017-4.601,3.829-7.654C179.55,125.394,177.741,122.675,174.998,121.321z"/>
			<path d="M139.702,156.409c-3.716-2.878-9.06-2.209-11.952,1.497l0,0c-18.215,23.489-29.596,51.55-32.888,81.092
				c-0.251,2.249,0.403,4.505,1.817,6.272c1.414,1.767,3.472,2.9,5.721,3.149c0.317,0.037,0.635,0.055,0.954,0.054
				c4.343-0.007,7.987-3.275,8.467-7.592c2.952-26.42,13.132-51.515,29.421-72.525C144.107,164.629,143.418,159.287,139.702,156.409
				z"/>
		</g>
	</g>
</g>
<g>
</g>
<g>
</g>
<g>
</g>
<g>
</g>
<g>
</g>
<g>
</g>
<g>
</g>
<g>
</g>
<g>
</g>
<g>
</g>
<g>
</g>
<g>
</g>
<g>
</g>
<g>
</g>
<g>
</g>
</svg>
