<svg id="Capa_1" enable-background="new 0 0 510 510" height="512" viewBox="0 0 510 510" width="512" xmlns="http://www.w3.org/2000/svg" xmlns:xlink="http://www.w3.org/1999/xlink"><linearGradient id="SVGID_1_" gradientUnits="userSpaceOnUse" x1="-40" x2="95.059" y1="217.575" y2="217.575"><stop offset="0" stop-color="#685e68"/><stop offset="1" stop-color="#433f43"/></linearGradient><linearGradient id="lg1"><stop offset="0" stop-color="#a79ba7"/><stop offset=".7487" stop-color="#7a6d79"/><stop offset="1" stop-color="#685e68"/></linearGradient><linearGradient id="SVGID_2_" gradientUnits="userSpaceOnUse" x1="-15.719" x2="122.989" xlink:href="#lg1" y1="255" y2="255"/><linearGradient id="SVGID_3_" gradientUnits="userSpaceOnUse" x1="-11.333" x2="74.427" xlink:href="#lg1" y1="255" y2="255"/><linearGradient id="SVGID_4_" gradientUnits="userSpaceOnUse" x1="1" x2="107.471" xlink:href="#lg1" y1="51.5" y2="51.5"/><linearGradient id="SVGID_5_" gradientUnits="userSpaceOnUse" x1="-16" x2="80.255" xlink:href="#lg1" y1="51.5" y2="51.5"/><linearGradient id="SVGID_6_" gradientUnits="userSpaceOnUse" x1="144" x2="530.021" y1="217.575" y2="217.575"><stop offset="0" stop-color="#f8f6f7"/><stop offset=".4802" stop-color="#f8f6f7"/><stop offset=".77" stop-color="#f1eff6"/><stop offset="1" stop-color="#e7e6f5"/></linearGradient><linearGradient id="lg2"><stop offset="0" stop-color="#01d0fb"/><stop offset=".6075" stop-color="#26a6fe"/><stop offset="1" stop-color="#0182fc"/></linearGradient><linearGradient id="SVGID_7_" gradientUnits="userSpaceOnUse" x1="137.15" x2="549.632" xlink:href="#lg2" y1="217.576" y2="217.576"/><linearGradient id="SVGID_8_" gradientUnits="userSpaceOnUse" x1="137.15" x2="549.632" xlink:href="#lg2" y1="217.571" y2="217.571"/><linearGradient id="SVGID_9_" gradientUnits="userSpaceOnUse" x1="297.215" x2="532.618" y1="217.57" y2="217.57"><stop offset="0" stop-color="#01bffa"/><stop offset=".2539" stop-color="#1f9efc"/><stop offset=".5724" stop-color="#407afd"/><stop offset=".8326" stop-color="#5464ff"/><stop offset="1" stop-color="#5b5cff"/></linearGradient><g><path d="m150.263 347.353-110.249-21.619v-216.319l110.249-21.618zm-90.249-38.078 70.249 13.774v-210.949l-70.249 13.774z" fill="url(#SVGID_1_)"/><g><path d="m21.5 480v-450c0-16.569 13.431-30 30-30 16.569 0 30 13.431 30 30v450c0 16.569-13.431 30-30 30-16.569 0-30-13.431-30-30z" fill="url(#SVGID_2_)"/><path d="m78.5 17.628v-.716c-4.861-10.01-15.124-16.912-27-16.912-16.569 0-30 13.431-30 30v88.358c8.45 6.068 18.803 9.653 30 9.653 1.754 0 3.405-.098 4.989-.27v352.259c0 12.104-7.172 22.526-17.495 27.268 3.808 1.749 8.041 2.732 12.506 2.732 16.568 0 30-13.431 30-30v-450c0-4.692-1.079-8.838-3-12.372z" fill="url(#SVGID_3_)"/></g><g><circle cx="51.5" cy="51.5" fill="url(#SVGID_4_)" r="51.5"/><path d="m51.5 0c-4.314 0-8.501.538-12.505 1.537 22.398 5.589 38.994 25.834 38.994 49.963s-16.596 44.374-38.995 49.963c4.005.999 8.192 1.537 12.506 1.537 28.443 0 51.5-23.057 51.5-51.5s-23.057-51.5-51.5-51.5z" fill="url(#SVGID_5_)"/></g><g><path d="m477.979 294.825-324.76 56.362c-20.889 3.625-40.001-12.455-40.001-33.656v-199.912c0-21.201 19.112-37.282 40.001-33.656l324.76 56.362c18.508 3.212 32.021 19.272 32.021 38.056v78.387c0 18.784-13.513 34.845-32.021 38.057z" fill="url(#SVGID_6_)"/><path d="m311.61 111.451v212.25l-99.2 17.22v-246.69z" fill="url(#SVGID_7_)"/><path d="m510 178.381v78.39c0 18.78-13.51 34.84-32.02 38.05l-67.18 11.66v-177.82l67.18 11.66c18.51 3.22 32.02 19.28 32.02 38.06z" fill="url(#SVGID_8_)"/><path d="m477.98 140.321-24.593-4.268c10.12 8.089 16.593 21.528 16.593 36.468v90.112c0 14.934-6.468 28.368-16.581 36.454l24.581-4.266c18.51-3.21 32.02-19.27 32.02-38.05v-78.39c0-18.78-13.51-34.84-32.02-38.06z" fill="url(#SVGID_9_)"/></g></g></svg>